<svg width="35" height="37" viewBox="0 0 35 37" fill="none" xmlns="http://www.w3.org/2000/svg">
<path d="M12.1255 34.6156V29.0037C12.1255 27.5816 13.2695 26.4263 14.6864 26.4173H19.8892C21.3125 26.4173 22.4663 27.5753 22.4663 29.0037V34.5993C22.4663 35.8328 23.4578 36.8352 24.6868 36.8442H28.2364C29.8942 36.8484 31.4855 36.1905 32.6593 35.0156C33.833 33.8407 34.4927 32.2453 34.4927 30.5815V14.6404C34.4927 13.2965 33.8991 12.0217 32.8719 11.1594L20.8131 1.48088C18.7052 -0.211999 15.6946 -0.157313 13.6491 1.61101L1.84959 11.1594C0.773852 11.9962 0.130894 13.2748 0.0991211 14.6404V30.5653C0.0991211 34.033 2.90017 36.8442 6.35544 36.8442H9.82397C10.4157 36.8484 10.9847 36.6156 11.4046 36.1972C11.8245 35.7788 12.0607 35.2095 12.0607 34.6156H12.1255Z" fill="#200E32"/>
</svg>
